<?xml version="1.0" standalone="no"?>
<!DOCTYPE svg PUBLIC "-//W3C//DTD SVG 20010904//EN"
 "http://www.w3.org/TR/2001/REC-SVG-20010904/DTD/svg10.dtd">
<svg version="1.0" xmlns="http://www.w3.org/2000/svg"
 width="200.000000pt" height="200.000000pt" viewBox="0 0 200.000000 200.000000"
 preserveAspectRatio="xMidYMid meet">
<metadata>
Created by potrace 1.11, written by Peter Selinger 2001-2013
</metadata>
<g transform="translate(0.000000,200.000000) scale(0.100000,-0.100000)"
fill="#000000" stroke="none">
<path d="M862 1834 c-73 -62 -77 -147 -13 -278 47 -97 54 -143 31 -213 -18
-55 -16 -56 38 -16 84 63 86 176 3 308 -13 22 -30 59 -37 83 -12 38 -11 49 6
95 11 28 18 52 16 54 -1 2 -21 -13 -44 -33z"/>
<path d="M291 1084 c2 -161 23 -223 139 -425 65 -113 95 -193 106 -282 l6 -57
353 0 c352 0 354 0 357 21 2 17 20 27 83 48 139 48 269 134 398 265 115 118
174 231 164 316 -18 147 -146 204 -364 164 -31 -6 -33 -5 -33 25 l0 31 -605 0
-606 0 2 -106z m194 -8 c33 -43 88 -179 115 -285 22 -88 23 -132 3 -138 -12
-4 -46 29 -67 65 -55 98 -90 165 -106 210 -20 53 -29 150 -16 171 13 21 45 11
71 -23z m1267 -33 c128 -64 32 -261 -221 -451 -79 -59 -185 -118 -228 -127
-25 -4 -30 12 -14 43 6 9 16 31 24 47 7 17 39 78 71 137 62 116 91 190 110
283 12 59 13 60 57 72 58 15 167 14 201 -4z"/>
<path d="M123 225 c27 -24 129 -61 197 -71 19 -3 53 -9 75 -14 59 -13 909 -13
997 1 144 21 281 66 292 95 5 12 -110 14 -792 14 l-797 -1 28 -24z"/>
</g>
</svg>
